name C:\Users\tom_v\MusculoskeletalSpecialization_revisited\Results\Case_18\motion.mot
datacolumns 32
datarows 10
range 0.11661416 0.15859526
endheader 
time	pelvis_tilt	pelvis_list	pelvis_rotation	pelvis_tx	pelvis_ty	pelvis_tz	hip_flexion_r	hip_adduction_r	hip_rotation_r	knee_angle_r	ankle_angle_r	subtalar_angle_r	mtp_angle_r	hip_flexion_l	hip_adduction_l	hip_rotation_l	knee_angle_l	ankle_angle_l	subtalar_angle_l	mtp_angle_l	lumbar_extension	lumbar_bending	lumbar_rotation	arm_flex_r	arm_add_r	arm_rot_r	elbow_flex_r	arm_flex_l	arm_add_l	arm_rot_l	elbow_flex_l	
          0.11661416	        -10.17326923	         12.30649077	        -21.50123272	          1.04323956	          0.93719492	          0.02721397	          4.19752902	        -16.19097424	          9.12803317	        -40.45646674	        -20.99379464	         -5.14196331	         -1.85716393	         59.58163070	         -6.60459125	         -9.32240717	        -58.49792349	         14.42436394	          4.86064230	         -1.87666039	         -0.69097739	        -10.69928402	         26.15302889	         49.99721814	          4.99973647	          8.88430584	        114.35101275	        -69.99992859	        -42.36222996	        -13.19867452	          0.00009030	
          0.12127873	         -9.13358330	         11.81939237	        -22.58132567	          1.08376062	          0.94010441	          0.02874505	          2.88348482	        -16.50593550	          9.37353970	        -40.99828203	        -21.25814251	         -2.05483621	          0.41726445	         58.84042139	         -7.59537191	         -9.56791944	        -56.82007267	         15.38427669	          4.86643977	         -1.82405923	         -1.97603429	        -10.83450372	         27.65819150	         49.99436863	          4.88970549	         11.41044534	        112.76160626	        -69.97371582	        -42.59410365	         -9.82313507	          0.44115639	
          0.12594330	         -8.06067418	         11.27885980	        -23.68082798	          1.12414878	          0.94319602	          0.03018939	          1.64186927	        -16.74870364	          9.53477293	        -41.55559713	        -21.25859584	         -1.52393666	          2.30559368	         57.82458426	         -8.52628428	         -9.77230800	        -54.90872957	         16.29381127	          4.96671405	         -1.83140634	         -3.32662535	        -10.96565329	         29.04646703	         49.95372564	          4.69465203	         13.09035396	        110.01450440	        -69.99002936	        -42.51927185	         -3.11230569	          1.74538116	
          0.13060786	         -6.93962169	         10.70779469	        -24.79839846	          1.16440958	          0.94651188	          0.03149043	          0.48684497	        -16.97577569	          9.62459674	        -42.11116597	        -21.53535406	         -2.86870208	          3.81272274	         56.51655701	         -9.34942832	         -9.92672614	        -52.75163801	         17.12502413	          5.09216614	         -1.87022237	         -4.74657257	        -11.12175025	         30.32376029	         49.87691117	          4.48037156	         13.73086210	        106.04226298	        -69.99319058	        -42.28589921	          5.37449187	          4.10650044	
          0.13527243	         -5.78745409	         10.11874184	        -25.92756390	          1.20453296	          0.95001074	          0.03257309	         -0.53753390	        -17.22563225	          9.71933088	        -42.71754337	        -21.55752349	         -4.13916087	          4.51516391	         54.95435843	        -10.04006661	         -9.99968266	        -50.38550184	         17.85209883	          5.22242639	         -1.80370255	         -6.21545878	        -11.31389271	         31.52837413	         49.74987922	          4.24054473	         13.23702359	        101.17437161	        -69.94828701	        -42.06346093	         13.33641273	          7.92840605	
          0.13993700	         -4.68614673	          9.47746872	        -27.03207414	          1.24450042	          0.95355681	          0.03335116	         -1.35675247	        -17.43318868	          9.86293891	        -43.41263351	        -21.17095545	         -4.19774098	          4.52271805	         53.26038876	        -10.62819305	         -9.90446223	        -47.90261033	         18.63579802	          5.41721137	         -2.69066704	         -7.67030713	        -11.47447619	         32.71467821	         49.62051819	          3.80390609	         11.81283171	         95.88916760	        -69.89251132	        -41.91670491	         18.36196666	         13.48744156	
          0.14460156	         -3.73133531	          8.72988277	        -28.03333540	          1.28433515	          0.95701367	          0.03368369	         -1.93124945	        -17.48743758	          9.98895556	        -44.17505428	        -20.87847704	         -3.31632454	          4.87054192	         51.58616735	        -11.14510515	         -9.52609720	        -45.41272522	         19.09937902	          5.55493473	         -2.28264391	         -9.05595376	        -11.49582129	         33.88343450	         49.59620687	          2.80423920	         10.15950355	         90.60575438	        -69.88514629	        -41.57360034	         19.16840668	         20.39931393	
          0.14926613	         -2.91697623	          7.87130660	        -28.86434367	          1.32412926	          0.96036333	          0.03345488	         -2.32802100	        -17.38198544	          9.96738361	        -44.97245681	        -20.70725740	         -2.14400869	          5.39564153	         49.95302921	        -11.56063933	         -8.84844118	        -42.96720554	         19.34566405	          5.62137906	          0.11447253	        -10.40027677	        -11.36844101	         34.99366804	         49.71093767	          0.84506747	          9.13633607	         85.73303571	        -69.95728003	        -40.50203415	         15.64546062	         27.85161924	
          0.15393070	         -2.21939556	          6.97628895	        -29.46950687	          1.36399286	          0.96356182	          0.03257788	         -2.58385648	        -17.20379271	          9.68177028	        -45.80020139	        -20.38715419	         -1.09830607	          5.64809764	         48.36423396	        -11.79391035	         -7.94783904	        -40.56226519	         19.77393163	          5.62601751	          2.39597678	        -11.70111569	        -11.16847003	         35.98588790	         49.89852183	         -2.39335446	          9.56501871	         81.70970434	        -69.98873796	        -38.24802237	          8.63937216	         35.28723211	
          0.15859526	         -1.66468182	          6.17685399	        -29.77377897	          1.40404609	          0.96645919	          0.03097062	         -2.64843678	        -17.06269996	          9.04732768	        -46.66437648	        -19.87899659	         -0.30438358	          5.80696677	         46.90387251	        -11.73297377	         -6.91386469	        -38.18506148	         20.60624703	          5.50293872	          1.68186367	        -12.86996147	        -10.98403822	         36.77752910	         49.99981645	         -6.96967219	         11.85706859	         79.02299286	        -69.57119609	        -34.74550900	         -0.02470526	         42.48403772	
